# xmcd
#
# Track frame offsets: 
#        150
#        17475
#        37645
#        54130
#        62550
#        80350
#        95255
#        109845
#        124380
#        136215
#
# Disc length: 2021 seconds
#
# Revision: 2
# Processed by: cddbd v1.5.2PL0 Copyright (c) Steve Scherf et al.
# Submitted via: ExactAudioCopy v1.0b3
#
DISCID=6f07e30a
DTITLE=Almir Sater - Caminhos Me Levem
DYEAR=1996
DGENRE=MPB
TTITLE0=O vento e o tempo
TTITLE1=Caminhos me levem
TTITLE2=Brasil poeira
TTITLE3=Floresta do arco-íris (Instrumental)
TTITLE4=Pagode bom de briga
TTITLE5=Milhões de estrêlas
TTITLE6=Viola fora de moda
TTITLE7=Cabecinha no ombro
TTITLE8=Sodade matadeira
TTITLE9=Mochileira (1ª versão)
EXTD=
EXTT0=
EXTT1=
EXTT2=
EXTT3=
EXTT4=
EXTT5=
EXTT6=
EXTT7=
EXTT8=
EXTT9=
PLAYORDER=
